<?xml version="1.0" encoding="iso-8859-1"?>
<!-- Generator: Adobe Illustrator 19.0.0, SVG Export Plug-In . SVG Version: 6.00 Build 0)  -->
<svg version="1.1" id="Capa_1" xmlns="http://www.w3.org/2000/svg" xmlns:xlink="http://www.w3.org/1999/xlink" x="0px" y="0px"
	 viewBox="0 0 512 512" style="enable-background:new 0 0 512 512;" xml:space="preserve">
<g>
	<g>
		<path d="M504,32H8c-4.418,0-8,3.582-8,8v304c0,4.418,3.582,8,8,8h166.56l-6.448,38.68c-0.729,4.358,2.213,8.481,6.57,9.21
			c0.435,0.073,0.876,0.11,1.318,0.11h160c4.418-0.001,7.999-3.584,7.998-8.002c0-0.441-0.037-0.882-0.11-1.318L337.44,352H504
			c4.418,0,8-3.582,8-8V40C512,35.582,508.418,32,504,32z M185.448,384l5.328-32h130.448l5.328,32H185.448z M496,336H328H16v-40h480
			V336z M496,280H16V48h480V280z"/>
	</g>
</g>
<g>
	<g>
		<path d="M455.888,470.68l-8-48c-0.645-3.854-3.98-6.679-7.888-6.68H72c-3.908,0.001-7.243,2.826-7.888,6.68l-8,48
			c-0.729,4.358,2.213,8.481,6.57,9.21C63.118,479.963,63.559,480,64,480h384c4.418-0.001,7.999-3.584,7.998-8.002
			C455.998,471.556,455.961,471.115,455.888,470.68z M73.448,464l5.328-32h354.448l5.328,32H73.448z"/>
	</g>
</g>
<g>
	<g>
		<path d="M408,304h-8c-4.418,0-8,3.582-8,8s3.582,8,8,8h8c4.418,0,8-3.582,8-8S412.418,304,408,304z"/>
	</g>
</g>
<g>
	<g>
		<path d="M440,304h-8c-4.418,0-8,3.582-8,8s3.582,8,8,8h8c4.418,0,8-3.582,8-8S444.418,304,440,304z"/>
	</g>
</g>
<g>
	<g>
		<path d="M472,304h-8c-4.418,0-8,3.582-8,8s3.582,8,8,8h8c4.418,0,8-3.582,8-8S476.418,304,472,304z"/>
	</g>
</g>
<g>
</g>
<g>
</g>
<g>
</g>
<g>
</g>
<g>
</g>
<g>
</g>
<g>
</g>
<g>
</g>
<g>
</g>
<g>
</g>
<g>
</g>
<g>
</g>
<g>
</g>
<g>
</g>
<g>
</g>
</svg>
