<?xml version="1.0" encoding="iso-8859-1"?>
<!-- Generator: Adobe Illustrator 19.0.0, SVG Export Plug-In . SVG Version: 6.00 Build 0)  -->
<svg version="1.1" id="Layer_1" xmlns="http://www.w3.org/2000/svg" xmlns:xlink="http://www.w3.org/1999/xlink" x="0px" y="0px"
	 viewBox="0 0 512 512" style="enable-background:new 0 0 512 512;" xml:space="preserve">
<g>
	<g>
		<g>
			<path style="fill:#231F20;" d="M508.059,174.525c-128.896-162.745-374.998-163.027-504.118,0
				c-6.253,7.894-4.921,19.364,2.974,25.616s19.363,4.921,25.616-2.974c114.311-144.329,332.453-144.55,446.94,0
				c6.256,7.901,17.725,9.222,25.616,2.974C512.981,193.887,514.312,182.419,508.059,174.525z"/>
			<path style="fill:#231F20;" d="M87.372,240.465c-6.255,7.893-4.927,19.362,2.966,25.616c7.896,6.257,19.363,4.925,25.616-2.966
				c71.667-90.439,208.291-90.605,280.09,0c6.256,7.893,17.724,9.221,25.616,2.966c7.893-6.255,9.222-17.723,2.966-25.616
				C338.355,131.595,173.775,131.429,87.372,240.465z"/>
			<path style="fill:#231F20;" d="M170.757,306.4c-6.25,7.897-4.916,19.364,2.981,25.615c7.897,6.25,19.365,4.916,25.615-2.981
				c28.925-36.546,84.318-36.607,113.292,0c6.251,7.897,17.717,9.232,25.615,2.981c7.897-6.251,9.23-17.718,2.981-25.615
				C297.724,251.418,214.345,251.33,170.757,306.4z"/>
			<circle style="fill:#231F20;" cx="256.003" cy="413.695" r="45.945"/>
		</g>
	</g>
</g>
<g>
</g>
<g>
</g>
<g>
</g>
<g>
</g>
<g>
</g>
<g>
</g>
<g>
</g>
<g>
</g>
<g>
</g>
<g>
</g>
<g>
</g>
<g>
</g>
<g>
</g>
<g>
</g>
<g>
</g>
</svg>
